<svg xmlns="http://www.w3.org/2000/svg" width="1200" height="620" viewBox="0 0 1200 620"><rect width="1200" height="620" rx="34" fill="#fbf8f0"/><rect x="18" y="18" width="1164" height="584" rx="28" fill="none" stroke="#eadfc9" stroke-width="3"/><text x="600" y="82" text-anchor="middle" font-family="Arial, sans-serif" font-weight="700" font-size="43" fill="#103e34">Короткое видео должно вести к следующему шагу</text><g transform="translate(110 150)"><rect x="0" y="0" width="230" height="350" rx="34" fill="#173f36"/><rect x="18" y="25" width="194" height="244" rx="22" fill="#dfe9e5"/><polygon points="92,95 92,190 166,142" fill="#176b58"/><text x="115" y="305" text-anchor="middle" font-family="Arial, sans-serif" font-weight="700" font-size="23" fill="#fff">Короткое видео</text></g><path d="M380 326h105" stroke="#176b58" stroke-width="8" stroke-linecap="round"/><path d="M467 310l22 16-22 16" fill="none" stroke="#176b58" stroke-width="8" stroke-linecap="round" stroke-linejoin="round"/><g transform="translate(505 190)"><circle cx="110" cy="110" r="105" fill="#f5ead5"/><path d="M70 112c0-22 18-40 40-40h26c22 0 40 18 40 40s-18 40-40 40h-16" fill="none" stroke="#103e34" stroke-width="17" stroke-linecap="round"/><path d="M150 108c0 22-18 40-40 40H84c-22 0-40-18-40-40s18-40 40-40h16" fill="none" stroke="#103e34" stroke-width="17" stroke-linecap="round"/><text x="110" y="248" text-anchor="middle" font-family="Arial, sans-serif" font-weight="700" font-size="25" fill="#103e34">Понятная ссылка</text></g><path d="M755 326h105" stroke="#176b58" stroke-width="8" stroke-linecap="round"/><path d="M842 310l22 16-22 16" fill="none" stroke="#176b58" stroke-width="8" stroke-linecap="round" stroke-linejoin="round"/><g transform="translate(885 168)"><rect x="0" y="0" width="230" height="270" rx="28" fill="#fff" stroke="#ddd4c3" stroke-width="2"/><circle cx="115" cy="72" r="31" fill="#176b58"/><path d="M66 159c9-38 89-38 98 0" fill="#176b58"/><rect x="45" y="192" width="140" height="42" rx="13" fill="#edf5f1"/><text x="115" y="220" text-anchor="middle" font-family="Arial, sans-serif" font-weight="700" font-size="19" fill="#176b58">Регистрация</text><text x="115" y="312" text-anchor="middle" font-family="Arial, sans-serif" font-weight="700" font-size="25" fill="#103e34">Целевое действие</text></g><text x="600" y="560" text-anchor="middle" font-family="Arial, sans-serif" font-size="23" fill="#56645f">Если зрителю непонятно, куда нажать после ролика, охват не превращается в трафик</text></svg>