<svg xmlns="http://www.w3.org/2000/svg" width="1200" height="620" viewBox="0 0 1200 620"><rect width="1200" height="620" rx="34" fill="#fbf8f0"/><rect x="18" y="18" width="1164" height="584" rx="28" fill="none" stroke="#eadfc9" stroke-width="3"/><text x="600" y="82" text-anchor="middle" font-family="Arial, sans-serif" font-weight="700" font-size="43" fill="#103e34">Сверяйте одинаковые данные</text><text x="600" y="122" text-anchor="middle" font-family="Arial, sans-serif" font-size="22" fill="#56645f">Один период, одна метка и одинаковые события в обеих системах</text><rect x="74" y="176" width="468" height="300" rx="24" fill="#ffffff" stroke="#ddd4c3" stroke-width="2"/><rect x="658" y="176" width="468" height="300" rx="24" fill="#ffffff" stroke="#ddd4c3" stroke-width="2"/><text x="308" y="224" text-anchor="middle" font-family="Arial, sans-serif" font-weight="700" font-size="29" fill="#103e34">Партнёрский кабинет</text><text x="892" y="224" text-anchor="middle" font-family="Arial, sans-serif" font-weight="700" font-size="29" fill="#103e34">Трекер или таблица</text><g font-family="Arial, sans-serif" font-size="22" fill="#273a34"><text x="108" y="284">Период</text><text x="508" y="284" text-anchor="end">1–7 августа</text><text x="108" y="334">Метка</text><text x="508" y="334" text-anchor="end">видео_01</text><text x="108" y="384">Клики</text><text x="508" y="384" text-anchor="end">126</text><text x="108" y="434">Регистрации</text><text x="508" y="434" text-anchor="end">9</text><text x="692" y="284">Период</text><text x="1092" y="284" text-anchor="end">1–7 августа</text><text x="692" y="334">Метка</text><text x="1092" y="334" text-anchor="end">видео_01</text><text x="692" y="384">Клики</text><text x="1092" y="384" text-anchor="end">126</text><text x="692" y="434">Регистрации</text><text x="1092" y="434" text-anchor="end">9</text></g><path d="M566 326h68" stroke="#176b58" stroke-width="8" stroke-linecap="round"/><path d="M618 310l22 16-22 16" fill="none" stroke="#176b58" stroke-width="8" stroke-linecap="round" stroke-linejoin="round"/><rect x="262" y="508" width="676" height="60" rx="18" fill="#edf5f1"/><text x="600" y="546" text-anchor="middle" font-family="Arial, sans-serif" font-weight="700" font-size="23" fill="#176b58">Если цифры расходятся, сначала проверьте период, часовой пояс и метку</text></svg>