<svg xmlns="http://www.w3.org/2000/svg" width="1800" height="3200" viewBox="0 0 1800 3200">
  <defs>
    <filter id="rough" x="-10%" y="-10%" width="120%" height="120%">
      <feTurbulence type="fractalNoise" baseFrequency="0.025 0.14" numOctaves="2" seed="14" result="n"/>
      <feDisplacementMap in="SourceGraphic" in2="n" scale="1.7" xChannelSelector="R" yChannelSelector="G"/>
    </filter>
    <filter id="dust" x="-20%" y="-20%" width="140%" height="140%">
      <feGaussianBlur stdDeviation="0.9"/>
    </filter>
    <filter id="noisewash" x="-20%" y="-20%" width="140%" height="140%">
      <feTurbulence type="fractalNoise" baseFrequency="0.85" numOctaves="2" seed="22" result="grain"/>
      <feColorMatrix in="grain" type="matrix" values="1 0 0 0 0  0 1 0 0 0  0 0 1 0 0  0 0 0 .08 0"/>
    </filter>
  </defs>

  <rect width="1800" height="3200" fill="transparent"/>
  <rect width="1800" height="3200" filter="url(#noisewash)" opacity=".28"/>

  <!-- erased chalk smudges -->
  <g fill="none" stroke="#fff" stroke-linecap="round" filter="url(#dust)">
    <path d="M92 310c110-6 191 7 280-2" stroke-width="17" opacity=".028"/>
    <path d="M1380 552c128-10 210 5 300-6" stroke-width="21" opacity=".026"/>
    <path d="M118 1178c143 3 224-9 324-2" stroke-width="19" opacity=".022"/>
    <path d="M1350 1590c112-7 225 2 304-8" stroke-width="20" opacity=".023"/>
    <path d="M126 2360c127 0 222-8 315-3" stroke-width="20" opacity=".022"/>
    <path d="M1360 2820c122-7 226 6 314-3" stroke-width="22" opacity=".024"/>
  </g>

  <!-- top-left beaker cluster -->
  <g transform="translate(110 150) rotate(-4)">
    <g fill="none" stroke="#fff" stroke-linecap="round" stroke-linejoin="round" filter="url(#rough)">
      <path d="M34 0h42M44 0v44L12 108c-6 11 1 23 13 23h60c12 0 19-12 13-23L66 44V0" stroke-width="1.5" opacity=".20"/>
      <path d="M22 91c18 8 33-2 49 6 8 4 17 4 25 0" stroke-width="1.1" opacity=".18"/>
      <circle cx="36" cy="77" r="2.1" stroke-width="1.1" opacity=".15"/>
      <circle cx="61" cy="86" r="1.6" stroke-width="1" opacity=".13"/>
      <path d="M112 18h94M112 18v88M112 106h76" stroke-width="1.15" opacity=".14"/>
      <path d="M122 88c10-24 26-8 36-24 10-16 17 10 34-18" stroke-width="1.15" opacity=".18"/>
    </g>
  </g>

  <!-- top-right target / drafting circle -->
  <g transform="translate(1590 430)">
    <g fill="none" stroke="#fff" stroke-linecap="round" stroke-linejoin="round" filter="url(#rough)">
      <circle cx="0" cy="0" r="110" stroke-width="1.2" opacity=".11"/>
      <circle cx="0" cy="0" r="66" stroke-width="1.1" opacity=".12"/>
      <circle cx="0" cy="0" r="26" stroke-width="1.1" opacity=".13"/>
      <path d="M-144 0h78M67 0h78M0-144v78M0 67v78" stroke-width="1.05" opacity=".10"/>
      <path d="M-88 -88 88 88M88 -88 -88 88" stroke-width=".9" opacity=".05"/>
      <path d="M-12 -12h24v24h-24z" stroke-width="1" opacity=".08"/>
    </g>
  </g>

  <!-- hero-right tiny notes -->
  <g transform="translate(1450 980) rotate(3)" fill="none" stroke="#fff" stroke-linecap="round" stroke-linejoin="round" filter="url(#rough)">
    <path d="M0 0h118" stroke-width="1.05" opacity=".12"/>
    <path d="M0 18h87" stroke-width="1.02" opacity=".10"/>
    <path d="M0 36h64" stroke-width="1" opacity=".08"/>
    <path d="M140 6c8-4 17-4 25 0 9 6 18 4 28 0" stroke-width="1.05" opacity=".15"/>
    <path d="M142 32c10-10 18-10 28 0" stroke-width="1.05" opacity=".12"/>
  </g>

  <!-- middle-left funnel / flow -->
  <g transform="translate(120 1310) rotate(-2)">
    <g fill="none" stroke="#fff" stroke-linecap="round" stroke-linejoin="round" filter="url(#rough)">
      <path d="M0 0h150L95 58v54H55V58Z" stroke-width="1.3" opacity=".16"/>
      <path d="M22 16h102M37 34h74" stroke-width="1.05" opacity=".12"/>
      <rect x="10" y="146" width="40" height="24" rx="5" stroke-width="1.05" opacity=".12"/>
      <rect x="84" y="146" width="40" height="24" rx="5" stroke-width="1.05" opacity=".12"/>
      <path d="M50 158h34" stroke-width="1" opacity=".12"/>
      <path d="m73 152 9 6-9 6" stroke-width="1.05" opacity=".14"/>
    </g>
  </g>

  <!-- middle-right lab graph and tiny molecule -->
  <g transform="translate(1490 1650) rotate(2)">
    <g fill="none" stroke="#fff" stroke-linecap="round" stroke-linejoin="round" filter="url(#rough)">
      <path d="M0 110V0M0 110h132" stroke-width="1.15" opacity=".15"/>
      <path d="M12 91V74M36 91V56M60 91V63M84 91V34M108 91V46" stroke-width="1.15" opacity=".13"/>
      <path d="M10 78c21-25 31-8 49-28 16-18 28 10 46-22" stroke-width="1.15" opacity=".16"/>
      <path d="M180 25 204 10l24 14v28l-24 14-24-14Zm48 0 24-14 25 14v28l-25 14-24-14" stroke-width="1.05" opacity=".11"/>
      <circle cx="204" cy="10" r="2" stroke-width="1" opacity=".10"/>
      <circle cx="252" cy="10" r="2" stroke-width="1" opacity=".10"/>
      <circle cx="277" cy="24" r="2" stroke-width="1" opacity=".10"/>
    </g>
  </g>

  <!-- lower-left flask and scribbles -->
  <g transform="translate(130 2515) rotate(2)">
    <g fill="none" stroke="#fff" stroke-linecap="round" stroke-linejoin="round" filter="url(#rough)">
      <path d="M28 0h46M40 0v53L8 143c-7 14 2 29 18 29h73c16 0 25-15 18-29L62 53V0" stroke-width="1.45" opacity=".18"/>
      <path d="M18 128c22 9 42-2 63 7 10 4 19 3 29 0" stroke-width="1.08" opacity=".16"/>
      <circle cx="38" cy="113" r="2.4" stroke-width="1" opacity=".13"/>
      <circle cx="70" cy="124" r="1.8" stroke-width="1" opacity=".12"/>
      <path d="M164 22h122" stroke-width="1.1" opacity=".12"/>
      <path d="M164 43h88" stroke-width="1.05" opacity=".10"/>
      <path d="M164 64h104" stroke-width="1.02" opacity=".08"/>
      <path d="M174 98c8-6 17-6 25 0 9 6 18 5 28 0" stroke-width="1.05" opacity=".11"/>
    </g>
  </g>

  <!-- lower-right partial target and ruler -->
  <g transform="translate(1570 2670) rotate(-3)">
    <g fill="none" stroke="#fff" stroke-linecap="round" stroke-linejoin="round" filter="url(#rough)">
      <circle cx="0" cy="0" r="86" stroke-width="1.1" opacity=".10"/>
      <circle cx="0" cy="0" r="48" stroke-width="1.05" opacity=".12"/>
      <circle cx="0" cy="0" r="12" stroke-width="1" opacity=".12"/>
      <path d="M-116 0h66M50 0h66M0-116v66M0 50v66" stroke-width=".95" opacity=".09"/>
      <path d="M-190 152h150M-178 144v16M-148 147v10M-118 147v10M-88 147v10M-58 144v16" stroke-width=".95" opacity=".10"/>
    </g>
  </g>

  <!-- tiny handwritten chalk notes -->
  <g fill="#fff" opacity=".075" font-family="Segoe Print, Comic Sans MS, cursive" filter="url(#rough)">
    <text x="125" y="540" font-size="19" transform="rotate(-6 125 540)">test → click → reg</text>
    <text x="1460" y="1220" font-size="18" transform="rotate(4 1460 1220)">CTR / FTD</text>
    <text x="150" y="1950" font-size="18" transform="rotate(-5 150 1950)">source · link · result</text>
    <text x="1415" y="2120" font-size="18" transform="rotate(3 1415 2120)">check the data</text>
  </g>
</svg>
