<svg xmlns="http://www.w3.org/2000/svg" width="1800" height="3200" viewBox="0 0 1800 3200">
  <defs>
    <linearGradient id="boardTone" x1="0" y1="0" x2="1" y2="1">
      <stop offset="0%" stop-color="#0b1318"/>
      <stop offset="52%" stop-color="#0d171d"/>
      <stop offset="100%" stop-color="#0a1217"/>
    </linearGradient>
    <filter id="chalkRough" x="-20%" y="-20%" width="140%" height="140%">
      <feTurbulence type="fractalNoise" baseFrequency="0.018 0.12" numOctaves="2" seed="31" result="noise"/>
      <feDisplacementMap in="SourceGraphic" in2="noise" scale="2.6" xChannelSelector="R" yChannelSelector="G"/>
    </filter>
    <filter id="boardDust" x="-20%" y="-20%" width="140%" height="140%">
      <feTurbulence type="fractalNoise" baseFrequency="0.78" numOctaves="2" seed="12" result="grain"/>
      <feColorMatrix in="grain" type="matrix" values="1 0 0 0 0  0 1 0 0 0  0 0 1 0 0  0 0 0 .12 0"/>
    </filter>
    <filter id="smudge" x="-30%" y="-30%" width="160%" height="160%">
      <feGaussianBlur stdDeviation="1.6"/>
    </filter>
    <style>
      .c1{stroke:#fffdf4;stroke-opacity:.17;fill:none;stroke-linecap:round;stroke-linejoin:round;filter:url(#chalkRough)}
      .c2{stroke:#fffdf4;stroke-opacity:.12;fill:none;stroke-linecap:round;stroke-linejoin:round;filter:url(#chalkRough)}
      .c3{stroke:#fffdf4;stroke-opacity:.09;fill:none;stroke-linecap:round;stroke-linejoin:round;filter:url(#chalkRough)}
      .txt{fill:#fffdf4;fill-opacity:.10;font-family:"Segoe Print","Comic Sans MS",cursive;filter:url(#chalkRough)}
      .txt2{fill:#fffdf4;fill-opacity:.07;font-family:"Segoe Print","Comic Sans MS",cursive;filter:url(#chalkRough)}
    </style>
  </defs>

  <rect width="1800" height="3200" fill="url(#boardTone)"/>
  <rect width="1800" height="3200" filter="url(#boardDust)" opacity=".42"/>

  <g filter="url(#smudge)" fill="none" stroke="#fffdf4" stroke-linecap="round">
    <path d="M92 338c124 -12 221 10 314 -8" stroke-width="22" opacity=".028"/>
    <path d="M1334 570c152 -8 251 11 355 -8" stroke-width="24" opacity=".03"/>
    <path d="M108 1248c138 0 253 -10 349 -3" stroke-width="22" opacity=".028"/>
    <path d="M1328 1658c128 -7 246 8 345 -5" stroke-width="23" opacity=".03"/>
    <path d="M98 2396c128 2 246 -11 348 -3" stroke-width="23" opacity=".028"/>
    <path d="M1334 2860c133 -4 244 8 345 -5" stroke-width="24" opacity=".03"/>
    <path d="M1430 1005c112 0 175 -6 240 -2" stroke-width="18" opacity=".018"/>
    <path d="M1358 3014c104 0 177 -5 244 -2" stroke-width="18" opacity=".018"/>
  </g>

  <!-- upper left flask + sheet -->
  <g transform="translate(116 144) rotate(-4)">
    <path class="c1" stroke-width="1.9" d="M34 4h43m-33 0v47L12 116c-8 12 1 27 17 27h59c16 0 24-15 17-27L72 51V4"/>
    <path class="c2" stroke-width="1.3" d="M20 99c18 7 35-4 51 3 7 4 16 5 27 1"/>
    <path class="c3" stroke-width="1.1" d="M30 114c9-6 16 5 24 2m9-8c4 4 8 4 12 1"/>
    <circle class="c2" stroke-width="1.2" cx="36" cy="85" r="2.3"/>
    <circle class="c3" stroke-width="1.1" cx="63" cy="90" r="1.8"/>
    <path class="c2" stroke-width="1.2" d="M122 20l76-4 4 72-86 6z"/>
    <path class="c3" stroke-width="1.1" d="M132 44c12-6 24-7 35-1m-38 15c15-5 32-5 47 0m-39 14c13-4 28-4 40 0"/>
  </g>

  <!-- upper middle faint equation lines -->
  <g transform="translate(360 470) rotate(-3)">
    <text class="txt" x="0" y="0" font-size="26">test → click → reg → FTD</text>
    <text class="txt2" x="48" y="48" font-size="22">source + link + note</text>
  </g>

  <!-- upper right target with more chalk -->
  <g transform="translate(1578 420) rotate(2)">
    <circle class="c2" stroke-width="1.45" cx="0" cy="0" r="122"/>
    <circle class="c2" stroke-width="1.35" cx="0" cy="0" r="78"/>
    <circle class="c1" stroke-width="1.25" cx="0" cy="0" r="34"/>
    <path class="c3" stroke-width="1.1" d="M-160 0h88M72 0h88M0-160v88M0 72v88"/>
    <path class="c3" stroke-width="1.05" d="M-94 -94 94 94M94 -94 -94 94"/>
    <path class="c2" stroke-width="1.1" d="M-14 -14h28v28h-28z"/>
    <path class="c3" stroke-width=".9" d="M-134 34c30-18 45-16 74 2"/>
  </g>

  <!-- right side note cluster -->
  <g transform="translate(1414 920) rotate(4)">
    <path class="c2" stroke-width="1.1" d="M0 0h116m0 18H0m72 18H0"/>
    <path class="c3" stroke-width="1.05" d="M136 10c12-5 19-4 27 2 10 7 20 7 31 0"/>
    <path class="c3" stroke-width="1.05" d="M138 34c10-9 18-10 28 0"/>
    <text class="txt2" x="0" y="72" font-size="20">CTR / FTD</text>
  </g>

  <!-- middle left funnel with chalk arrows -->
  <g transform="translate(104 1284) rotate(-2)">
    <path class="c1" stroke-width="1.55" d="M0 0h168l-60 63v54H60V63Z"/>
    <path class="c3" stroke-width="1.08" d="M20 18h114M38 35h76"/>
    <rect class="c2" stroke-width="1.1" x="14" y="150" width="44" height="26" rx="5"/>
    <rect class="c2" stroke-width="1.1" x="92" y="150" width="44" height="26" rx="5"/>
    <path class="c2" stroke-width="1.05" d="M59 163h31"/>
    <path class="c2" stroke-width="1.1" d="m80 156 10 7-10 7"/>
    <text class="txt2" x="8" y="206" font-size="18">что проверять?</text>
  </g>

  <!-- center faint blueprint lines -->
  <g transform="translate(730 1420) rotate(1)">
    <path class="c3" stroke-width="1" d="M0 0h240m-240 44h198m-198 44h160"/>
    <path class="c3" stroke-width="1" d="M260 16v108m34-82v82m34-58v58"/>
    <path class="c3" stroke-width="1" d="M338 0c16 4 25 13 28 28"/>
  </g>

  <!-- middle right graph + molecule -->
  <g transform="translate(1460 1616) rotate(2)">
    <path class="c2" stroke-width="1.2" d="M0 122V0M0 122h142"/>
    <path class="c2" stroke-width="1.18" d="M15 101V80M44 101V58M73 101V66M102 101V35M130 101V49"/>
    <path class="c1" stroke-width="1.2" d="M14 86c24-28 34-8 54-30 18-19 31 10 53-24"/>
    <path class="c3" stroke-width="1.02" d="M184 26 209 11l25 14v29l-25 14-25-14Zm50 0 25-14 26 14v29l-26 14-25-14"/>
    <circle class="c3" stroke-width="1" cx="209" cy="11" r="2.2"/>
    <circle class="c3" stroke-width="1" cx="259" cy="12" r="2.2"/>
    <circle class="c3" stroke-width="1" cx="285" cy="26" r="2.2"/>
    <text class="txt2" x="162" y="96" font-size="18">данные</text>
  </g>

  <!-- large center-right chalk arrows -->
  <g transform="translate(1300 2020) rotate(-6)">
    <path class="c3" stroke-width="1.1" d="M0 0c38-10 70-10 106 0"/>
    <path class="c3" stroke-width="1.1" d="m92 -8 14 8-14 8"/>
    <text class="txt2" x="0" y="-18" font-size="17">что улучшать дальше</text>
  </g>

  <!-- lower left large flask -->
  <g transform="translate(108 2460) rotate(3)">
    <path class="c1" stroke-width="1.8" d="M34 2h52m-38 0v58L8 154c-8 15 2 31 19 31h84c17 0 27-16 19-31L91 60V2"/>
    <path class="c2" stroke-width="1.18" d="M22 140c24 11 44-1 66 8 10 4 19 3 30 0"/>
    <path class="c3" stroke-width="1.05" d="M32 126c8 0 13 4 18 8m18-10c10 0 18 6 26 4"/>
    <circle class="c2" stroke-width="1.05" cx="42" cy="124" r="2.6"/>
    <circle class="c3" stroke-width="1" cx="78" cy="133" r="1.9"/>
    <text class="txt2" x="148" y="36" font-size="19">link / source / result</text>
    <path class="c3" stroke-width="1.02" d="M148 52h118m0 18h82m-82 18h97"/>
  </g>

  <!-- lower middle notebook block -->
  <g transform="translate(748 2550) rotate(-2)">
    <path class="c2" stroke-width="1.15" d="M0 0h192v108H0z"/>
    <path class="c3" stroke-width="1" d="M16 20h110m-110 20h138m-138 20h124m-124 20h96"/>
    <path class="c3" stroke-width="1" d="M154 16h20m-20 20h20m-20 20h20"/>
  </g>

  <!-- lower right target + ruler -->
  <g transform="translate(1566 2686) rotate(-4)">
    <circle class="c2" stroke-width="1.2" cx="0" cy="0" r="92"/>
    <circle class="c2" stroke-width="1.15" cx="0" cy="0" r="54"/>
    <circle class="c1" stroke-width="1.05" cx="0" cy="0" r="14"/>
    <path class="c3" stroke-width="1" d="M-124 0h72M52 0h72M0-124v72M0 52v72"/>
    <path class="c3" stroke-width="1" d="M-206 154h162M-194 146v16M-162 149v10M-130 149v10M-98 149v10M-66 146v16"/>
    <path class="c3" stroke-width="1" d="M-4 -4 4 4M4 -4 -4 4"/>
  </g>

  <!-- extra small chalk details to make the page feel fuller -->
  <g transform="translate(316 2928) rotate(-6)">
    <text class="txt2" x="0" y="0" font-size="18">check rule / geo</text>
    <path class="c3" stroke-width="1" d="M0 16h90m0 14H22"/>
  </g>
  <g transform="translate(1210 2860) rotate(5)">
    <text class="txt2" x="0" y="0" font-size="18">масштабировать после сверки</text>
    <path class="c3" stroke-width="1" d="M0 18h126"/>
  </g>
  <g transform="translate(1188 344) rotate(-6)">
    <path class="c3" stroke-width="1" d="M0 0h70m0 12H18"/>
    <text class="txt2" x="0" y="32" font-size="16">карта пути</text>
  </g>
  <g transform="translate(480 1004) rotate(4)">
    <path class="c3" stroke-width="1.1" d="M0 0c10-8 21-8 31 0 10 7 21 7 31 0"/>
    <path class="c3" stroke-width="1" d="M84 4h76"/>
  </g>
</svg>
